# xmcd CD database file
#
# Track frame offsets:
#	150
#	16875
#	35785
#	55445
#	76200
#	95250
#	113735
#	131580
#	149505
#	169830
#	187980
#
# Disc length: 2752 seconds
#
# Revision: 18
# Processed by: cddbd v1.5.2PL0 Copyright (c) Steve Scherf et al.
# Submitted via: CDex 1.70beta2
#
DISCID=910abe0b
DTITLE=倉木麻衣 - If I Believe
DYEAR=2003
DGENRE=JPop
TTITLE0=If I Believe
TTITLE1=Time after time ～花舞う街で～
TTITLE2=風のららら
TTITLE3=Kiss
TTITLE4=mi corazon
TTITLE5=I Don't Wanna Lose You
TTITLE6=Make my day ～album version
TTITLE7=Same
TTITLE8=Just A Little Bit
TTITLE9=You Are Not The Only One
TTITLE10=Tonight, I Feel Close To You (With 孃H 燕傘 <Yan-Zi>)
EXTD=YEAR: 2003
EXTT0=
EXTT1=
EXTT2=
EXTT3=
EXTT4=
EXTT5=
EXTT6=
EXTT7=
EXTT8=
EXTT9=
EXTT10=
PLAYORDER=
